<?xml version="1.0" encoding="UTF-8"?>
<svg id="Capa_2" data-name="Capa 2" xmlns="http://www.w3.org/2000/svg" viewBox="0 0 1474.19 351.49">
  <defs>
    <style>
      .cls-1 {
        fill: #f2f2ee;
      }
    </style>
  </defs>
  <g id="Capa_2-2" data-name="Capa 2">
    <g id="_2" data-name=" 2">
      <g>
        <g>
          <g>
            <path class="cls-1" d="M178.05,107.98c-.04,18.77-15.23,32.8-32.92,32.74-17.52-.06-32.71-14-32.71-32.82s16.19-33.13,32.85-32.72c16.82-.35,32.82,13.38,32.78,32.8Z"/>
            <path class="cls-1" d="M171.05,13.38H0v192.22h171.05c52.77.71,91.96-43.91,91.53-96.11.43-52.49-38.76-96.83-91.53-96.11ZM154.11,145.46c-2.89.53-5.87.78-8.81.8-16.76.07-33.51.07-50.27.02-5.25-.02-10.43-.66-15.33-2.72-13.43-5.66-21.68-15.68-23.88-30.05-2.99-19.48,9.06-37.46,28.11-42.56,3-.8,6.19-1.2,9.3-1.26,9.02-.16,18.05-.06,27.08-.06h-.01s26.25-.01,26.25-.01c18.65,0,34.24,12.49,37.92,30.8,4.32,21.44-9.95,41.28-30.36,45.04Z"/>
            <path class="cls-1" d="M341.46,13.38h89.1l103.11,192.21h-84.38l-15.16-32.89h-96.25l-15.16,32.89h-84.38L341.46,13.38ZM359.62,125.79h52.77l-26.31-56.77s-26.46,56.77-26.46,56.77Z"/>
            <path class="cls-1" d="M730.14,13.24c39.62-.43,73.22,32.89,72.65,72.65,0,14.44-3.86,27.6-11.58,39.33-7.58,11.58-17.74,20.45-30.32,26.31l41.9,53.92h-79.8l-36.18-46.91h-66.93v46.91h-74.94V13.24h185.2,0ZM619.88,69.44v32.75h91.39c4.58,0,8.44-1.57,11.59-4.72,3.29-3.29,4.86-7.15,4.86-11.59,0-9.15-7.29-16.45-16.45-16.45h-91.39Z"/>
            <path class="cls-1" d="M814.26,13.38h224.96v49.2h-150.02v24.6h150.02v44.48h-150.02v24.6h150.02v49.34h-224.96V13.38h0Z"/>
            <path class="cls-1" d="M1125.43,139.66v65.64h-74.94V13.09h74.94v65.64h32.75l70.5-65.64h98.4l-99.68,96.11,99.68,96.11h-98.4l-70.5-65.64h-32.75,0Z"/>
          </g>
          <g>
            <path class="cls-1" d="M820.6,262.59l-10.66-2.13c1.52-7,2.13-18.88-1.52-22.84-.61-.91-1.52-1.83-3.96-1.52-8.53.61-23.45,11.57-31.36,26.18-4.26,8.22-7.92,20.4-.91,32.58,1.52,2.44,3.65,3.96,6.7,4.57,21.62,3.65,71.55-35.01,88.91-50.24l7.3,8.22c-6.39,5.79-61.81,53.29-93.17,53.29-1.52,0-3.04,0-4.57-.31-6.39-.91-11.26-4.26-14.31-9.44-7.61-13.09-7.31-28.62.61-43.54,8.83-16.74,26.8-31.05,40.19-31.97,6.7-.61,10.96,2.44,13.09,5.18,8.52,9.74,4.57,30.14,3.96,32.58l-.3-.61h0Z"/>
            <path class="cls-1" d="M925.16,253.16c-10.66-7.92-21.01-10.35-31.66-7.31-37.45,11.26-64.55,86.47-64.86,87.08-.91,2.13-3.04,3.65-5.17,3.65h-1.52c-2.74-.61-4.57-3.35-3.96-6.09,2.44-13.7,36.84-104.44,40.8-114.79l10.35,3.96c-4.26,10.96-11.26,29.23-18.27,48.11,10.96-14.61,24.36-27.4,39.58-31.97,14.01-4.26,27.71-1.22,41.11,8.83l-6.7,8.83.31-.3h0Z"/>
            <path class="cls-1" d="M997.87,235.8c-1.22,17.05-43.54,44.76-61.51,55.72,1.83,1.52,3.96,2.74,6.7,3.35,22.53,4.87,65.16-29.53,79.78-43.23l7.61,7.92c-.61.61-14.01,13.4-31.66,25.58-20.7,14.31-37.75,21.62-51.15,21.62-2.43,0-4.57-.3-6.7-.61-9.13-1.83-15.83-7.92-19.79-17.36-5.79-14.01-3.65-36.84,21.31-55.72,15.22-11.57,36.84-17.96,51.15-6.7,3.05,2.43,4.57,5.79,4.27,9.74v-.31h-.01ZM930.57,282.69c28.93-17.66,58.46-41.1,56.63-47.8-3.04-2.44-7-3.65-11.57-3.65-7.92,0-17.36,3.65-26.18,10.35-13.09,9.74-23.45,25.88-18.57,40.8l-.31.3Z"/>
            <path class="cls-1" d="M1101.13,278.12c6.4,5.48,33.19-13.4,53.29-33.8l7.92,7.61c-11.57,11.87-50.85,49.02-68.2,34.71-2.44-1.83-7.31-7.92-4.27-24.36-14.61,18.57-33.19,37.15-49.33,39.28h-2.74c-6.09,0-11.57-2.43-15.84-7-8.52-8.53-11.57-17.66-9.13-27.1,3.35-12.79,17.36-25.27,41.71-36.84,17.36-8.22,33.49-13.09,34.1-13.4l3.05,10.66c-17.36,5.18-63.64,22.84-68.81,42.63-1.52,5.48.61,10.96,6.39,16.74,2.74,2.74,5.79,3.96,9.44,3.35,22.22-2.74,56.94-53.59,68.51-73.08,1.52-2.44,4.87-3.35,7.61-1.83,2.74,1.52,3.65,4.87,2.13,7.61-13.4,25.27-21.01,51.15-16.14,55.11l.3-.31v.02Z"/>
            <path class="cls-1" d="M1274.06,8.36c10.66,22.23-30.45,106.57-67.29,174.16,27.1-2.44,54.5-4.57,75.2-5.18l.31,10.96c-22.23.61-52.67,3.05-81.6,5.79-17.96,32.28-34.1,59.37-41.41,71.55-7.61,35.32-7.61,52.67-4.87,55.72,2.13,1.83,4.57,2.44,7.61,2.13,18.27-2.74,46.58-41.1,56.02-55.72l9.13,5.79c-3.65,5.79-37.15,56.63-63.64,60.29-1.22.31-2.13.31-3.04.31-4.87,0-9.44-1.52-13.09-4.87-3.65-3.05-14.31-12.48,10.96-105.65,2.44-8.83,4.87-17.66,7.61-26.79-30.45,3.05-53.59,5.79-54.2,5.79l-1.21-10.96c.61,0,26.18-3.04,59.07-6.39,13.09-42.63,28.93-85.86,43.85-119.05C1241.18,4.7,1255.49-1.08,1263.71.14c4.57.61,8.22,3.35,10.35,7.61v.61h0ZM1187.29,194.7c-3.35.3-6.7.61-10.05.91-1.52,4.57-2.74,9.13-3.96,13.7-1.83,6.7-3.65,13.09-5.18,19.18,6.7-11.87,13.09-23.14,19.19-33.8h0ZM1193.68,183.13c58.46-106.26,75.2-160.46,70.34-170.51-.31-.91-.61-1.22-1.52-1.22-1.22,0-9.44,1.22-27.4,35.32-17.05,32.28-37.45,84.34-54.2,137.62,4.26-.3,8.53-.61,12.79-.91v-.31h-.01Z"/>
            <path class="cls-1" d="M1300.24,256.2l6.7,8.53c-5.79,4.57-56.33,43.23-80.08,43.23h-2.74c-3.96-.61-7.3-2.74-9.13-6.39-9.13-16.74,14.62-67.29,19.49-77.34l9.75,4.87c-12.79,26.49-24.05,59.68-19.79,67.59.31.61.61.61,1.22.61,13.7,1.83,52.98-24.05,74.6-40.8v-.3h-.02ZM1238.73,209.31c1.22-4.87,3.96-8.83,8.83-8.83s8.22,4.26,8.83,8.83c.61,5.48-3.96,8.83-8.83,8.83s-10.05-3.96-8.83-8.83Z"/>
            <path class="cls-1" d="M1297.54,245.85l10.96.91c-1.52,17.05-3.96,59.37,0,84.34,13.7-26.18,47.19-82.51,82.51-87.08l1.52,10.96c-32.28,3.96-68.81,68.81-80.08,93.47-.91,1.83-2.74,3.04-4.87,3.04s-3.96-1.22-4.87-3.04c-11.57-25.58-4.87-99.57-4.57-102.61h-.61,0Z"/>
            <path class="cls-1" d="M1420.9,216.62l5.79,9.13c-1.83,1.22-4.26,2.74-7,4.87h.91c10.05,2.13,17.05,8.53,19.49,17.96,8.83,1.83,19.49,2.13,31.06-1.22l3.04,10.66c-11.88,3.65-23.14,3.96-32.88,2.44-1.22,15.83-11.88,32.88-25.27,38.67-2.44,1.22-6.09,2.43-10.35,2.43-6.4,0-14.31-2.74-22.23-11.87-5.48-6.39-7.61-13.7-6.39-21.62,3.65-25.58,42.02-50.54,43.54-51.46h.3-.01ZM1430.34,258.03c-10.96-3.65-18.88-9.13-22.22-13.7-.61-.91-1.22-1.83-1.52-2.74-9.13,8.53-17.66,18.88-18.88,28.32-.61,4.87.61,9.13,3.96,12.79,6.39,7.31,13.09,9.44,20.09,6.39,10.05-4.26,18.57-18.88,18.57-31.36v.3h0Z"/>
          </g>
        </g>
        <g>
          <path class="cls-1" d="M178.05,107.98c-.04,18.77-15.23,32.8-32.92,32.74-17.52-.06-32.71-14-32.71-32.82s16.19-33.13,32.85-32.72c16.82-.35,32.82,13.38,32.78,32.8Z"/>
          <path class="cls-1" d="M178.05,107.98c-.04,18.77-15.23,32.8-32.92,32.74-17.52-.06-32.71-14-32.71-32.82s16.19-33.13,32.85-32.72c16.82-.35,32.82,13.38,32.78,32.8Z"/>
        </g>
      </g>
    </g>
  </g>
</svg>